<?xml version="1.0" standalone="no"?>
<!DOCTYPE svg PUBLIC "-//W3C//DTD SVG 20010904//EN"
 "http://www.w3.org/TR/2001/REC-SVG-20010904/DTD/svg10.dtd">
<svg version="1.0" xmlns="http://www.w3.org/2000/svg"
 width="1080.000000pt" height="778.000000pt" viewBox="0 0 1080.000000 778.000000"
 preserveAspectRatio="xMidYMid meet">

<g transform="translate(0.000000,778.000000) scale(0.100000,-0.100000)"
fill="#000000" stroke="none">
<path d="M7584 6568 c-34 -75 -115 -190 -178 -253 -126 -124 -246 -182 -397
-192 l-85 -6 -21 54 c-45 115 -72 172 -89 190 -27 26 -246 86 -380 104 -158
21 -474 18 -474 -4 0 -9 76 -110 108 -143 l25 -28 -64 19 c-35 10 -91 26 -123
36 -33 10 -149 53 -258 96 -230 92 -334 123 -375 113 -49 -12 -165 -69 -252
-123 -269 -167 -495 -390 -617 -607 -20 -36 -38 -63 -40 -61 -7 7 32 110 75
196 64 131 127 217 240 334 57 59 99 107 93 107 -6 0 -59 -16 -119 -35 -126
-41 -338 -143 -438 -211 -73 -49 -167 -125 -162 -130 2 -2 27 3 57 11 30 8 62
15 71 15 8 0 -30 -46 -86 -102 -346 -353 -573 -817 -665 -1358 l-18 -105 -1
135 c-2 403 131 789 380 1107 27 35 49 65 49 69 0 9 -202 -99 -277 -149 -80
-54 -267 -207 -260 -213 3 -3 42 4 87 16 45 12 86 20 90 18 4 -2 -46 -61 -112
-133 -145 -157 -335 -391 -416 -511 -71 -107 -166 -273 -160 -279 3 -3 25 10
49 28 76 58 169 118 169 110 0 -4 -7 -44 -16 -88 -26 -127 -23 -393 5 -518 47
-205 97 -344 192 -527 l59 -115 -50 55 c-166 183 -273 395 -311 614 -11 67 -7
301 6 371 l6 30 -26 -30 c-14 -16 -50 -80 -81 -142 -61 -124 -104 -274 -124
-436 -16 -122 -8 -374 15 -475 9 -41 14 -79 12 -85 -6 -18 -88 142 -118 232
-16 46 -34 123 -41 170 -6 47 -15 90 -19 94 -10 12 -84 -95 -125 -180 -19 -40
-52 -141 -74 -228 -22 -87 -52 -187 -66 -224 -34 -84 -60 -174 -69 -237 -3
-28 -10 -56 -14 -63 -12 -18 -23 152 -16 240 l6 74 -26 -30 c-40 -46 -130
-183 -163 -250 -92 -186 -112 -324 -138 -936 l-6 -156 104 5 c56 2 100 1 97
-2 -4 -4 -35 -14 -69 -22 -78 -18 -167 -62 -228 -113 -37 -31 -59 -40 -102
-46 -72 -10 -96 -23 -154 -84 -56 -61 -86 -122 -93 -196 l-6 -54 60 58 c63 61
126 91 193 91 31 0 40 5 61 37 27 43 102 103 127 103 12 0 10 -5 -9 -18 -70
-46 -119 -144 -119 -236 l0 -55 55 55 c69 69 121 93 203 94 l62 0 0 -65 c0
-36 2 -65 5 -65 3 0 28 22 55 49 61 61 120 85 195 79 46 -4 62 -10 89 -37 l34
-33 49 50 c42 43 55 50 99 56 93 12 185 -18 279 -89 l48 -37 -7 43 c-18 117
-113 244 -200 269 -38 10 -53 21 -73 54 -15 23 -39 57 -54 76 l-29 35 31 115
c43 164 49 294 19 430 -12 57 -31 128 -42 158 -11 29 -18 55 -15 58 7 7 104
-146 131 -207 13 -31 28 -73 31 -93 4 -20 11 -39 16 -41 9 -6 52 75 89 168 12
32 32 65 44 73 12 8 55 36 96 63 41 26 104 76 140 110 l65 62 -60 55 c-33 30
-55 54 -48 54 6 0 15 -5 18 -10 17 -27 359 -179 373 -166 3 3 0 6 -6 6 -20 0
-212 221 -278 321 -59 89 -118 204 -158 309 -21 54 -15 48 55 -54 221 -324
561 -612 958 -810 177 -89 500 -212 607 -232 19 -3 34 -9 34 -13 0 -11 -209 8
-302 27 -49 10 -88 15 -88 10 0 -11 99 -84 161 -118 30 -16 50 -30 44 -30 -8
0 -149 42 -226 66 -26 9 -59 -93 -59 -180 l0 -72 48 -14 c44 -13 45 -14 17
-17 -80 -9 -135 -27 -182 -58 -50 -33 -58 -35 -137 -35 -75 0 -90 -3 -154 -35
-48 -25 -88 -55 -129 -98 -53 -57 -112 -152 -101 -163 3 -2 35 10 72 27 45 21
89 33 132 37 35 2 64 3 64 1 0 -2 -11 -26 -25 -53 -36 -71 -34 -78 16 -61 23
8 52 15 65 15 20 0 30 11 51 57 37 77 128 172 205 214 61 32 68 34 205 39
l141 7 49 42 c26 23 73 62 104 87 l56 45 14 107 c7 62 12 181 11 282 -2 112 2
205 11 258 l14 82 -62 58 c-34 31 -94 77 -135 102 -142 88 -263 232 -327 390
-27 66 -67 210 -58 210 2 0 19 -28 38 -62 20 -35 58 -88 85 -118 l49 -54 5
109 c13 253 142 453 383 591 l50 28 -55 -60 c-108 -117 -175 -242 -210 -387
-20 -82 -25 -217 -11 -267 7 -24 9 -22 29 24 24 53 97 160 131 190 l21 19 -21
-48 c-80 -181 -40 -408 99 -565 l37 -42 49 61 c62 78 169 160 266 205 125 58
133 56 57 -14 -192 -177 -302 -412 -336 -720 -22 -198 -30 -267 -37 -314 -7
-46 -6 -49 12 -42 10 5 68 10 127 13 84 5 126 2 188 -12 43 -10 79 -21 79 -24
0 -3 -38 -7 -85 -9 -105 -3 -256 -41 -350 -86 -38 -18 -99 -59 -135 -90 -75
-64 -108 -74 -265 -85 -124 -8 -177 -33 -257 -120 -82 -88 -128 -200 -128
-311 0 -41 14 -54 24 -22 11 33 120 132 176 160 49 24 65 27 147 25 l92 -3 42
61 c43 61 104 111 173 142 46 21 149 32 190 20 28 -9 26 -10 -30 -22 -210 -48
-348 -203 -362 -404 l-5 -82 74 75 c104 106 142 123 299 131 165 8 187 18 228
102 18 36 51 82 75 104 55 50 144 85 206 81 48 -4 47 -5 -33 -34 -57 -21 -146
-99 -181 -159 -45 -76 -71 -204 -57 -278 l7 -38 47 65 c77 106 166 156 282
156 54 0 140 33 165 63 17 21 80 22 107 2 10 -8 22 -15 25 -15 12 0 59 119 70
175 10 53 8 64 -22 148 l-32 92 51 180 c89 313 142 565 167 802 16 152 16 151
-57 286 -76 140 -152 242 -268 360 -59 59 -106 107 -105 107 25 0 194 -78 219
-101 31 -29 24 8 -29 146 -71 187 -166 335 -295 459 -49 47 -85 86 -80 86 19
0 137 -48 216 -88 196 -99 364 -266 480 -477 l38 -69 -64 51 c-35 29 -90 66
-122 83 l-59 32 16 -39 c89 -207 159 -410 211 -613 24 -96 26 -116 21 -230 -4
-69 -9 -147 -13 -175 l-6 -50 37 50 c47 63 110 193 129 265 12 45 15 50 17 25
6 -93 -13 -223 -48 -330 -40 -122 -90 -219 -212 -404 l-15 -24 94 7 c181 13
650 89 650 106 0 3 -20 30 -45 59 -61 71 -96 123 -134 198 -40 80 -39 86 4 36
88 -104 257 -247 374 -317 31 -19 91 -49 135 -67 74 -31 84 -40 175 -141 53
-59 104 -121 114 -137 17 -28 17 -28 -32 -93 -47 -61 -53 -66 -99 -72 -81 -11
-164 -87 -208 -191 -25 -62 -19 -64 67 -21 68 34 94 41 153 44 l72 4 -4 -71
c-2 -39 -1 -71 3 -71 5 0 31 22 60 49 49 47 124 81 175 81 11 0 21 14 28 38
12 38 59 94 96 114 20 10 20 10 5 -8 -9 -10 -27 -39 -39 -64 -26 -51 -31 -154
-11 -204 l12 -29 28 45 c36 56 84 87 161 101 60 12 60 12 60 47 0 35 41 110
60 110 14 0 12 -14 -2 -28 -6 -6 -12 -40 -12 -74 -1 -52 5 -75 32 -131 18 -37
37 -65 42 -62 4 3 11 19 14 37 13 67 61 103 175 130 61 14 149 -5 240 -53 41
-21 77 -36 80 -34 2 3 -12 37 -32 77 -46 93 -112 161 -173 178 -25 7 -64 28
-87 47 -46 39 -75 55 -161 89 l-61 25 82 -5 82 -4 -30 60 c-36 70 -150 259
-185 305 -30 39 -258 193 -383 257 -51 26 -91 50 -88 52 2 3 49 -2 103 -10 54
-8 100 -13 101 -12 5 5 -100 171 -155 244 -134 183 -357 353 -565 430 -45 17
-91 34 -102 38 -12 5 49 11 145 15 236 10 535 65 729 134 78 27 78 15 1 -24
-119 -59 -266 -120 -383 -160 l-108 -37 78 -54 c93 -65 232 -200 298 -290 26
-36 74 -109 107 -162 33 -54 62 -98 65 -98 2 0 64 30 136 67 521 264 1029 684
1261 1043 33 51 40 54 -106 -56 -346 -262 -738 -412 -1251 -479 -65 -8 -132
-15 -150 -15 l-32 1 30 15 c319 166 787 459 1043 651 45 34 82 59 82 55 0 -16
-205 -245 -309 -346 -127 -122 -128 -121 44 -64 255 84 538 260 679 422 140
162 228 325 290 537 90 312 86 701 -11 989 -37 111 -42 115 -43 34 -2 -505
-499 -1081 -1190 -1380 -342 -147 -664 -239 -1040 -296 -114 -17 -560 -17
-655 0 -125 22 -129 24 -114 32 8 4 63 15 123 25 l108 19 -178 38 c-99 21
-222 50 -274 64 -90 25 -285 98 -303 114 -12 11 58 22 183 29 l105 6 -235 78
c-129 43 -284 97 -345 121 l-110 43 -87 108 c-48 60 -97 128 -110 152 -13 24
-25 43 -28 43 -4 0 -12 -28 -19 -62 -21 -101 -65 -210 -121 -297 -29 -45 -54
-80 -56 -79 -2 2 8 35 22 73 14 38 28 98 31 134 l6 66 -64 -59 c-35 -32 -100
-82 -144 -111 -81 -53 -204 -119 -211 -113 -2 2 22 24 53 48 116 93 308 321
408 485 27 44 75 119 107 167 62 91 50 80 333 289 115 84 305 216 370 255 66
40 210 86 370 119 308 62 407 98 509 183 57 47 126 128 126 148 0 17 -39 18
-77 2 -21 -9 -144 -13 -468 -13 -370 -1 -457 -4 -550 -19 -113 -18 -332 -69
-363 -85 -37 -19 -154 -41 -216 -41 -90 0 -164 29 -226 90 -28 27 -50 53 -50
58 0 5 28 -5 63 -23 34 -19 89 -40 123 -49 l61 -16 118 40 c213 72 433 110
635 110 114 0 215 25 465 114 117 42 233 66 318 66 l61 0 -33 -34 c-30 -31
-39 -34 -114 -41 -45 -4 -158 -26 -251 -49 l-170 -43 130 -6 c164 -9 388 -9
447 -1 32 5 58 17 84 39 l38 33 -30 7 c-60 13 -60 18 0 36 49 15 71 17 125 9
173 -25 339 1 495 77 54 27 199 133 191 140 -2 3 -15 -2 -28 -11 -31 -20 -122
-55 -183 -72 -48 -12 -49 -12 -25 4 106 73 213 188 265 285 l28 52 -69 -66
c-61 -58 -154 -129 -168 -129 -3 0 13 37 34 83 37 77 77 203 67 213 -2 2 -12
-15 -23 -38z m-1150 -255 c8 -5 -21 -8 -69 -9 -86 0 -97 8 -41 31 31 13 57 8
110 -22z m-1010 -39 c73 -19 82 -25 90 -64 7 -36 28 -39 48 -8 15 23 16 23 54
5 l38 -19 -30 -18 c-44 -29 -150 -53 -193 -45 -54 10 -99 42 -122 86 -19 38
-21 39 -71 39 -58 0 -56 10 5 27 60 16 110 15 181 -3z m167 -203 c-31 -24 -88
-41 -134 -41 -53 0 -57 20 -5 21 24 0 66 9 93 19 64 24 76 24 46 1z m64 -629
c-19 -17 -322 -130 -485 -182 -439 -140 -694 -270 -905 -465 -27 -26 -43 -44
-35 -41 8 3 59 23 112 46 100 41 342 113 367 108 8 -2 -17 -16 -55 -31 -417
-170 -758 -497 -935 -896 -42 -94 -47 -89 -23 27 40 194 129 402 247 577 76
112 299 338 417 422 247 175 478 269 818 329 138 24 449 98 460 109 3 3 10 5
16 5 6 0 6 -3 1 -8z"/>
<path d="M5810 6466 c0 -4 107 -66 114 -66 12 0 -9 43 -27 55 -19 13 -87 22
-87 11z"/>
<path d="M8245 5923 c-275 -33 -517 -114 -880 -295 -266 -133 -505 -280 -654
-401 -88 -72 -253 -228 -247 -234 2 -3 24 8 48 23 455 289 963 512 1368 600
111 25 147 28 315 28 210 1 261 -8 385 -66 177 -84 272 -274 240 -477 -38
-239 -165 -447 -448 -735 -128 -130 -123 -130 63 -5 391 264 660 614 730 947
30 145 10 295 -51 383 -80 116 -258 201 -479 228 -83 10 -320 13 -390 4z"/>
<path d="M8081 5579 c-46 -5 -125 -18 -177 -29 -96 -20 -328 -89 -321 -96 2
-2 40 3 85 11 164 28 360 39 506 26 242 -21 406 -86 520 -205 l38 -41 -7 35
c-22 107 -100 200 -205 247 -106 48 -285 69 -439 52z"/>
</g>
</svg>
